<svg width="78" height="78" viewBox="0 0 78 78" fill="none" xmlns="http://www.w3.org/2000/svg">
<path d="M70.5501 46.4499C74.6646 29.0253 63.8745 11.5644 46.4499 7.4499C29.0252 3.33545 11.5643 14.1255 7.44987 31.5502C3.33542 48.9748 14.1255 66.4357 31.5501 70.5501C48.9748 74.6646 66.4357 63.8746 70.5501 46.4499Z" fill="white" fill-opacity="0.1"/>
<path d="M36.0928 56.8317L33.3447 49.7962H30.3693C27.5489 49.7962 25.2658 47.5337 25.2658 44.7236L25.2451 32.2127C25.2451 29.4026 27.5283 27.1195 30.3383 27.1195L47.6119 27.0988C50.422 27.0988 52.7155 29.382 52.7155 32.192L52.7361 44.6927C52.7361 47.513 50.453 49.8065 47.6429 49.8065H41.8678L36.0928 56.8317Z" fill="white"/>
</svg>
