<svg width="104" height="104" viewBox="0 0 104 104" fill="none" xmlns="http://www.w3.org/2000/svg">
<path d="M78 78C92.3594 63.6406 92.3594 40.3594 78 26C63.6406 11.6406 40.3594 11.6406 26 26C11.6406 40.3594 11.6406 63.6406 26 78C40.3594 92.3594 63.6406 92.3594 78 78Z" fill="white" fill-opacity="0.1"/>
<path d="M44.7917 53.1282C44.7917 56.7489 41.8623 59.6783 38.2416 59.6783C34.6208 59.6783 31.6914 56.7489 31.6914 53.1282C31.6914 49.5074 34.6208 46.578 38.2416 46.578C41.8623 46.578 44.7917 49.5074 44.7917 53.1282Z" fill="white"/>
<path d="M65.509 39.313C65.509 42.9338 62.5796 45.8632 58.9588 45.8632C55.3381 45.8632 52.4087 42.9338 52.4087 39.313C52.4087 35.6923 55.3381 32.7629 58.9588 32.7629C62.5796 32.7629 65.509 35.704 65.509 39.313Z" fill="white"/>
<path d="M65.509 66.9433C65.509 70.564 62.5796 73.4934 58.9588 73.4934C55.3381 73.4934 52.4087 70.564 52.4087 66.9433C52.4087 63.3225 55.3381 60.3931 58.9588 60.3931C62.5796 60.3931 65.509 63.3225 65.509 66.9433Z" fill="white"/>
<path d="M39.5071 55.0263L36.9761 51.2298L57.6928 37.4265L60.2356 41.2112L39.5071 55.0263Z" fill="white"/>
<path d="M57.6928 68.8415L36.9761 55.0265L39.5071 51.2299L60.2356 65.045L57.6928 68.8415Z" fill="white"/>
</svg>
