<svg width="44" height="44" viewBox="0 0 44 44" fill="none" xmlns="http://www.w3.org/2000/svg">
<rect width="44" height="44" rx="22" fill="#D9FF85"/>
<path d="M24.2 12.875C22.9734 12.875 21.797 13.3623 20.9296 14.2296C20.0623 15.097 19.575 16.2734 19.575 17.5V20.075H17.1C16.9757 20.075 16.875 20.1757 16.875 20.3V23.7C16.875 23.8243 16.9757 23.925 17.1 23.925H19.575V30.9C19.575 31.0243 19.6757 31.125 19.8 31.125H23.2C23.3243 31.125 23.425 31.0243 23.425 30.9V23.925H25.9219C26.0252 23.925 26.1152 23.8547 26.1402 23.7546L26.9902 20.3546C27.0257 20.2126 26.9183 20.075 26.7719 20.075H23.425V17.5C23.425 17.2945 23.5067 17.0973 23.652 16.952C23.7973 16.8067 23.9945 16.725 24.2 16.725H26.8C26.9243 16.725 27.025 16.6243 27.025 16.5V13.1C27.025 12.9757 26.9243 12.875 26.8 12.875H24.2Z" fill="#101010"/>
</svg>
