<svg width="98" height="98" viewBox="0 0 98 98" fill="none" xmlns="http://www.w3.org/2000/svg">
<path d="M62.9806 83.1576C82.004 75.2777 91.0375 53.4683 83.1576 34.4449C75.2777 15.4215 53.4683 6.38792 34.4449 14.2678C15.4215 22.1477 6.38793 43.9572 14.2678 62.9806C22.1478 82.004 43.9572 91.0376 62.9806 83.1576Z" fill="white" fill-opacity="0.1"/>
<path d="M48.6912 67.3442L48.216 67.059C28.9453 55.4514 29.1948 45.828 30.1928 42.24C31.4284 37.7728 35.6579 34.66 40.4578 34.66C43.8676 34.66 46.8497 36.3233 48.6912 39.1866C50.5446 36.3233 53.5267 34.6481 56.9484 34.6481C61.7602 34.6481 65.9779 37.7609 67.2253 42.2281C68.2233 45.828 68.4609 55.4396 49.1665 67.059L48.6912 67.3442Z" fill="white"/>
</svg>
