<svg width="44" height="44" viewBox="0 0 44 44" fill="none" xmlns="http://www.w3.org/2000/svg">
<rect width="44" height="44" rx="22" fill="#D9FF85"/>
<path d="M12.3999 13.5999C12.3999 12.9372 12.9372 12.3999 13.5999 12.3999H16.1833C16.77 12.3999 17.2706 12.824 17.367 13.4026L18.2542 18.7257C18.3408 19.2453 18.0784 19.7607 17.6072 19.9963L15.7494 20.9251C17.089 24.2539 19.7459 26.9108 23.0747 28.2504L24.0035 26.3926C24.2391 25.9214 24.7545 25.659 25.2741 25.7456L30.5972 26.6328C31.1758 26.7292 31.5999 27.2298 31.5999 27.8165V30.3999C31.5999 31.0626 31.0626 31.5999 30.3999 31.5999H27.9999C19.3843 31.5999 12.3999 24.6155 12.3999 15.9999V13.5999Z" fill="#101010"/>
</svg>
