<svg width="44" height="44" viewBox="0 0 44 44" fill="none" xmlns="http://www.w3.org/2000/svg">
<rect width="44" height="44" rx="22" fill="#D9FF85"/>
<path d="M31.9656 16.5436C31.8795 16.198 31.7108 15.8784 31.474 15.6122C31.2373 15.3461 30.9395 15.1413 30.6062 15.0155C27.4 13.778 22.2812 13.7874 22 13.7874C21.7187 13.7874 16.6 13.778 13.3937 15.0155C13.0605 15.1413 12.7627 15.3461 12.526 15.6122C12.2892 15.8784 12.1205 16.198 12.0344 16.5436C11.7906 17.4717 11.5 19.178 11.5 21.9999C11.5 24.8217 11.7906 26.528 12.0344 27.4561C12.1205 27.8017 12.2892 28.1213 12.526 28.3875C12.7627 28.6536 13.0605 28.8584 13.3937 28.9842C16.4687 30.1749 21.2875 30.2124 21.9344 30.2124H22.0656C22.7125 30.2124 27.5312 30.1749 30.6062 28.9842C30.9395 28.8584 31.2373 28.6536 31.474 28.3875C31.7108 28.1213 31.8795 27.8017 31.9656 27.4561C32.2094 26.528 32.5 24.8217 32.5 21.9999C32.5 19.178 32.2094 17.4717 31.9656 16.5436ZM25.2062 22.3092L20.7062 25.3092C20.6466 25.3532 20.5741 25.3762 20.5 25.3749C20.4379 25.3725 20.3771 25.3565 20.3219 25.328C20.262 25.2968 20.2118 25.2496 20.1771 25.1917C20.1423 25.1338 20.1243 25.0674 20.125 24.9999V18.9999C20.1243 18.9323 20.1423 18.8659 20.1771 18.808C20.2118 18.7501 20.262 18.7029 20.3219 18.6717C20.3817 18.6398 20.449 18.6247 20.5167 18.628C20.5843 18.6313 20.6499 18.6529 20.7062 18.6905L25.2062 21.6905C25.2585 21.7234 25.3016 21.7691 25.3315 21.8232C25.3614 21.8773 25.377 21.9381 25.377 21.9999C25.377 22.0617 25.3614 22.1224 25.3315 22.1765C25.3016 22.2306 25.2585 22.2763 25.2062 22.3092Z" fill="#101010"/>
</svg>
